<svg xmlns="http://www.w3.org/2000/svg" xmlns:xlink="http://www.w3.org/1999/xlink" fill="none" version="1.1" width="230" height="150" viewBox="0 0 230 150"><defs><linearGradient x1="0.4999980628490448" y1="1.1194182634353638" x2="0.4999980628490448" y2="0.08538444340229034" id="master_svg0_279_15207"><stop offset="0%" stop-color="#FCFCFE" stop-opacity="0"/><stop offset="100%" stop-color="#F4FBFC" stop-opacity="1"/></linearGradient><linearGradient x1="0.5267403721809387" y1="0.002559821819886565" x2="0.4840792119503021" y2="0.9679566025733948" id="master_svg1_279_14938"><stop offset="0%" stop-color="#E9F3FC" stop-opacity="1"/><stop offset="100%" stop-color="#DEDEE6" stop-opacity="0"/></linearGradient><linearGradient x1="0.5267403721809387" y1="0.002559821819886565" x2="0.4840792119503021" y2="0.9679566025733948" id="master_svg2_279_14938"><stop offset="0%" stop-color="#E9F3FC" stop-opacity="1"/><stop offset="100%" stop-color="#DEDEE6" stop-opacity="0"/></linearGradient><linearGradient x1="0.43928220868110657" y1="1.0533055067062378" x2="0.6842707991600037" y2="0.1490718126296997" id="master_svg3_279_14543"><stop offset="0%" stop-color="#FFD2C4" stop-opacity="1"/><stop offset="100%" stop-color="#FFB8A3" stop-opacity="1"/></linearGradient><linearGradient x1="0.2091248631477356" y1="0.16140776872634888" x2="0.985075056552887" y2="0.7112175226211548" id="master_svg4_279_14544"><stop offset="0%" stop-color="#FFD2C4" stop-opacity="1"/><stop offset="100%" stop-color="#FFB8A3" stop-opacity="1"/></linearGradient><linearGradient x1="0.14645454287528992" y1="0.1464480310678482" x2="0.8535454869270325" y2="0.853551983833313" id="master_svg5_279_14552"><stop offset="0%" stop-color="#FCFCFF" stop-opacity="1"/><stop offset="100%" stop-color="#FAFAFC" stop-opacity="1"/></linearGradient><linearGradient x1="0.4652329683303833" y1="0.9502302408218384" x2="0.7873027920722961" y2="0.28677886724472046" id="master_svg6_279_14553"><stop offset="0%" stop-color="#FFD2C4" stop-opacity="1"/><stop offset="100%" stop-color="#FFB8A3" stop-opacity="1"/></linearGradient></defs><g><g></g><g><path d="M217.8144140625,109.27745820312501Q217.8144140625,109.845158203125,217.6984140625,110.41225820312499Q217.5834140625,110.979258203125,217.3514140625,111.544358203125Q217.1204140625,112.109358203125,216.7744140625,112.670958203125Q216.4274140625,113.232558203125,215.9674140625,113.78945820312501Q215.5064140625,114.346258203125,214.9334140625,114.896958203125Q214.3594140625,115.447758203125,213.6744140625,115.991058203125Q212.9894140625,116.534358203125,212.1944140625,117.06895820312499Q211.3994140625,117.603458203125,210.4964140625,118.128058203125Q209.5924140625,118.652558203125,208.5834140625,119.165758203125Q207.5744140625,119.67905820312501,206.4624140625,120.179758203125Q205.3494140625,120.680458203125,204.1364140625,121.167458203125Q202.9224140625,121.654458203125,201.6114140625,122.126458203125Q200.3004140625,122.59855820312501,198.8944140625,123.054558203125Q197.4884140625,123.51065820312499,195.9904140625,123.949458203125Q194.4934140625,124.388358203125,192.9084140625,124.809058203125Q191.3234140625,125.229758203125,189.6544140625,125.631158203125Q187.9854140625,126.03265820312501,186.2364140625,126.41395820312499Q184.4874140625,126.795258203125,182.6634140625,127.15535820312499Q180.8384140625,127.51555820312501,178.9434140625,127.853758203125Q177.0474140625,128.191958203125,175.0844140625,128.507458203125Q173.1224140625,128.822858203125,171.0984140625,129.114758203125Q169.0734140625,129.406658203125,166.9924140625,129.674258203125Q164.9104140625,129.941858203125,162.7764140625,130.184658203125Q160.6434140625,130.427358203125,158.4624140625,130.644658203125Q156.2824140625,130.861958203125,154.0594140625,131.053158203125Q151.8374140625,131.244458203125,149.5794140625,131.409258203125Q147.3204140625,131.574058203125,145.0304140625,131.712058203125Q142.74141406249998,131.849958203125,140.4264140625,131.960758203125Q138.1114140625,132.071558203125,135.7774140625,132.154858203125Q133.4424140625,132.238158203125,131.09341406250002,132.293758203125Q128.7444140625,132.349458203125,126.3874140625,132.377258203125Q124.0297140625,132.40515820312498,121.6695140625,132.40515820312498Q119.3093140625,132.40515820312498,116.9519140625,132.377258203125Q114.5945140625,132.349458203125,112.2457140625,132.293758203125Q109.8968140625,132.238158203125,107.5621140625,132.154858203125Q105.2274140625,132.071558203125,102.9125140625,131.960758203125Q100.5976140625,131.849958203125,98.3082140625,131.712058203125Q96.0187140625,131.574058203125,93.7601140625,131.409258203125Q91.5015140625,131.244458203125,89.2792140625,131.053158203125Q87.0569140625,130.861958203125,84.8764140625,130.644658203125Q82.6958140625,130.427358203125,80.5622140625,130.184658203125Q78.4286140625,129.941858203125,76.3470140625,129.674258203125Q74.2655140625,129.406658203125,72.2410140625,129.114758203125Q70.2166140625,128.822858203125,68.25411406250001,128.507458203125Q66.2917140625,128.191958203125,64.3959140625,127.853758203125Q62.5002140625,127.51555820312501,60.6757140625,127.15535820312499Q58.8512140625,126.795258203125,57.1024140625,126.41395820312499Q55.3536140625,126.03265820312501,53.6847140625,125.631158203125Q52.015714062499995,125.229758203125,50.4307140625,124.809058203125Q48.845614062500005,124.388358203125,47.348314062499995,123.949458203125Q45.8510140625,123.51065820312499,44.4450140625,123.054558203125Q43.0390140625,122.59855820312501,41.7278140625,122.126458203125Q40.4165140625,121.654458203125,39.2031140625,121.167458203125Q37.9897140625,120.680458203125,36.8771140625,120.179758203125Q35.7645140625,119.67905820312501,34.755374062499996,119.165758203125Q33.7462440625,118.652558203125,32.8430240625,118.128058203125Q31.939804062500002,117.603458203125,31.1446640625,117.06895820312499Q30.3495240625,116.534358203125,29.6643940625,115.991058203125Q28.9792540625,115.447758203125,28.4057640625,114.896958203125Q27.832274062499998,114.346258203125,27.3718140625,113.78945820312501Q26.9113540625,113.232558203125,26.5650440625,112.670958203125Q26.2187220625,112.109358203125,25.9873790625,111.544358203125Q25.7560360625,110.979358203125,25.6402250625,110.41225820312499Q25.5244140625,109.845158203125,25.5244140625,109.27745820312501Q25.5244140625,108.709658203125,25.6402250625,108.14255820312499Q25.7560360625,107.575558203125,25.9873790625,107.010458203125Q26.2187220625,106.445458203125,26.5650440625,105.883858203125Q26.9113540625,105.322258203125,27.3718140625,104.76545820312501Q27.832274062499998,104.208558203125,28.4057640625,103.657858203125Q28.9792540625,103.107058203125,29.6643940625,102.563758203125Q30.3495240625,102.020458203125,31.1446640625,101.485858203125Q31.939804062500002,100.951358203125,32.8430240625,100.426758203125Q33.7462440625,99.902258203125,34.755374062499996,99.389058203125Q35.7645140625,98.875758203125,36.8771140625,98.37505820312501Q37.9897140625,97.874358203125,39.2031140625,97.387358203125Q40.4165140625,96.900358203125,41.7278140625,96.428358203125Q43.0390140625,95.956248203125,44.4450140625,95.500218203125Q45.8510140625,95.044198203125,47.348314062499995,94.605318203125Q48.845614062500005,94.166438203125,50.4307140625,93.745758203125Q52.015714062499995,93.325078203125,53.6847140625,92.923618203125Q55.3536140625,92.522158203125,57.1024140625,92.140878203125Q58.8512140625,91.759598203125,60.6757140625,91.399418203125Q62.5002140625,91.039238203125,64.3959140625,90.701028203125Q66.2917140625,90.362818203125,68.2542140625,90.047388203125Q70.2166140625,89.731958203125,72.2410140625,89.440078203125Q74.2655140625,89.148188203125,76.3470140625,88.880558203125Q78.4286140625,88.612918203125,80.5622140625,88.370168203125Q82.6958140625,88.127428203125,84.8764140625,87.910158203125Q87.0569140625,87.692878203125,89.2792140625,87.501608203125Q91.5015140625,87.310338203125,93.7601140625,87.145531203125Q96.0187140625,86.980721203125,98.3082140625,86.842768203125Q100.5976140625,86.704815203125,102.9125140625,86.594051203125Q105.2274140625,86.483288203125,107.5621140625,86.399981203125Q109.8968140625,86.316674203125,112.2457140625,86.261024203125Q114.5945140625,86.205375003125,116.9519140625,86.177516603125Q119.3093140625,86.149658203125,121.6695140625,86.149658203125Q124.0297140625,86.149658203125,126.3874140625,86.177516603125Q128.7444140625,86.205375003125,131.09341406250002,86.261024203125Q133.4424140625,86.316674203125,135.7774140625,86.399981203125Q138.1114140625,86.483288203125,140.4264140625,86.594051203125Q142.74141406249998,86.704815203125,145.0304140625,86.842768203125Q147.3204140625,86.980721203125,149.5794140625,87.145531203125Q151.8374140625,87.310338203125,154.0594140625,87.501608203125Q156.2824140625,87.692878203125,158.4624140625,87.910158203125Q160.6434140625,88.127428203125,162.7764140625,88.370168203125Q164.9104140625,88.612918203125,166.9924140625,88.880558203125Q169.0734140625,89.148188203125,171.0984140625,89.440078203125Q173.1224140625,89.731958203125,175.0844140625,90.047388203125Q177.0474140625,90.362818203125,178.9434140625,90.701028203125Q180.8384140625,91.039238203125,182.6634140625,91.399418203125Q184.4874140625,91.759598203125,186.2364140625,92.140878203125Q187.9854140625,92.522158203125,189.6544140625,92.923618203125Q191.3234140625,93.325078203125,192.9084140625,93.745758203125Q194.4934140625,94.166438203125,195.9904140625,94.605318203125Q197.4884140625,95.044198203125,198.8944140625,95.500228203125Q200.3004140625,95.956248203125,201.6114140625,96.428358203125Q202.9224140625,96.900358203125,204.1364140625,97.387358203125Q205.3494140625,97.874358203125,206.4624140625,98.37505820312501Q207.5744140625,98.875758203125,208.5834140625,99.389058203125Q209.5924140625,99.902258203125,210.4964140625,100.426758203125Q211.3994140625,100.951358203125,212.1944140625,101.485858203125Q212.9894140625,102.020458203125,213.6744140625,102.563758203125Q214.3594140625,103.107058203125,214.9334140625,103.657858203125Q215.5064140625,104.208558203125,215.9674140625,104.76545820312501Q216.4274140625,105.322258203125,216.7744140625,105.883858203125Q217.1204140625,106.445458203125,217.3514140625,107.010458203125Q217.5834140625,107.575558203125,217.6984140625,108.14255820312499Q217.8144140625,108.709658203125,217.8144140625,109.27745820312501Z" fill="url(#master_svg0_279_15207)" fill-opacity="1"/></g><g style="opacity:0.18199999630451202;"><path d="M45.1134,34.947780596875C53.4114,35.527532296875,60.2207,40.379274296874996,62.7834,46.781304296875L64.3089,46.887804296875004C72.45920000000001,47.457804296875,78.6047,54.527304296875,78.0347,62.677504296875L77.9319,64.143804296875C77.3619,72.294004296875,70.2924,78.439504296875,62.1422,77.869504296875L23.761699999999998,75.186004296875C15.61141,74.61600429687499,9.46666,67.546504296875,10.0366583,59.396304296875L10.138659,57.930004296875C10.708658,49.779804296875,17.77816,43.634274296875,25.9284,44.204274296875L25.9682,44.206514296875C29.3972,38.223774296875,36.8147,34.366518296875,45.1134,34.947019596875L45.1134,34.947780596875Z" fill="url(#master_svg1_279_14938)" fill-opacity="1"/></g><g><path d="M199.246848609375,85.48876953125L200.039599609375,85.48876953125C200.368099609375,85.48876953125,200.634349609375,85.75501653125,200.634349609375,86.08351853125L200.634349609375,94.14525953125C200.634379609375,94.47372953125,200.368069609375,94.74001953125,200.039599609375,94.74000953125L199.246848609375,94.74000953125C198.918380609375,94.74001953125,198.652099609375,94.47373953125,198.652099609375,94.14525953125L198.652099609375,86.08351853125C198.652099609375,85.75501653125,198.918357609375,85.48876953125,199.246848609375,85.48876953125Z" fill-rule="evenodd" fill="#CADCF0" fill-opacity="1"/></g><g><path d="M198.22822171875,74.586193359375C196.56247171875,77.927443359375,190.82797171875,88.176993359375,198.86346171875,89.324493359375C206.89891171875,90.471893359375,206.54041171875,83.649993359375,205.13121171875,81.208693359375C203.72120171875,78.767443359375,202.13045171875,77.400193359375,202.13045171875,74.586193359375C202.13045171875,71.771438359375,199.89320171875,71.244193359375,198.22822171875,74.586193359375Z" fill-rule="evenodd" fill="#E9F3FC" fill-opacity="1"/></g><g><path d="M42.661920875,108.538818359375L43.680421875,108.538818359375C44.107921875,108.538818359375,44.453671875,108.885322359375,44.453671875,109.312072359375L44.453671875,119.737818359375C44.454091875,120.164718359375,44.108101875,120.511118359375,43.681171875,120.511118359375L42.661170875,120.511118359375C42.234237875,120.511118359375,41.888259888,120.164718359375,41.888671875,119.737818359375L41.888671875,109.312072359375C41.888671875,108.885322359375,42.234420875,108.538818359375,42.661920875,108.538818359375L42.661920875,108.538818359375Z" fill-rule="evenodd" fill="#CADCF0" fill-opacity="1"/></g><g><path d="M41.340110078125,94.42892515625C39.184610078125,98.75417515625,31.762620078125,112.01793515625,42.162110078125,113.50293515625C52.560880078125,114.98793515625,52.096580078125,106.15963515625,50.272580078125,102.99993515625C48.449380078125,99.84092515625,46.390610078125,98.07168515625,46.390610078125,94.42893515625C46.390610078125,90.78693815625,43.495610078125,90.10443515625,41.340110078125,94.42892515625Z" fill-rule="evenodd" fill="#E9F3FC" fill-opacity="1"/></g><g style="opacity:0.18199999630451202;"><path d="M205.312770703125,35.101554909375C209.440770703125,35.389556609375,212.80007070312502,37.891554609375,213.916070703125,41.144304609375C217.361570703125,41.917554609375,219.820070703125,45.111774609375004,219.566570703125,48.742574609375C219.286070703125,52.746774609374995,215.812770703125,55.766274609375,211.80777070312502,55.486574609375L194.669530703125,54.288074609375C190.664530703125,54.008274609375,187.645034703125,50.534274609375004,187.925529503125,46.530074609375C188.205268703125,42.525044609375,191.678530703125,39.505554609375,195.683520703125,39.786054609375L195.994030703125,39.807804609375C197.575780703125,36.786804609375,201.221570703125,34.815051609375,205.312770703125,35.101554909375Z" fill="url(#master_svg2_279_14938)" fill-opacity="1"/></g><g><path d="M113.166259765625,28L113.166259765625,88.97579999999999L173.603459765625,97.1365L173.603459765625,42.547L113.166259765625,28Z" fill-rule="evenodd" fill="#CADCF0" fill-opacity="1"/></g><g><path d="M68.082275390625,42.547L113.166275390625,28L113.166275390625,81.43379999999999L68.082275390625,97.8572L68.082275390625,42.547Z" fill-rule="evenodd" fill="#A4BBDB" fill-opacity="1"/></g><g><path d="M68.082275390625,42.546875L68.082275390625,97.85707500000001L129.365475390625,116.319075L129.365475390625,58.080875L68.082275390625,42.546875Z" fill="#CADCF0" fill-opacity="1"/></g><g><path d="M129.36572265625,58.080875L129.36572265625,116.319075L173.60372265625,97.136375L173.60372265625,42.546875L129.36572265625,58.080875Z" fill="#A4BBDB" fill-opacity="1"/></g><g><path d="M68.08234375,42.546875L53.27734375,64.474675L111.80434375,81.434375L129.36564375,58.080875L68.08234375,42.546875Z" fill-rule="evenodd" fill="#E9F3FC" fill-opacity="1"/></g><g><path d="M129.36572265625,58.080875L144.03722265625,83.43617499999999L189.97622265625,63.303875000000005L173.60372265625,42.546875L129.36572265625,58.080875Z" fill-rule="evenodd" fill="#E9F3FC" fill-opacity="1"/></g><g><path d="M169.879776015625,65.0786484375C166.764276015625,68.4843984375,164.898276015625,70.5888984375,164.280266015625,71.3913884375C164.033516015625,71.74013843750001,165.053526015625,72.7241384375,167.338776015625,74.3433484375C170.500776015625,74.1386484375,171.839516015625,74.3036484375,171.353516015625,74.8383484375C171.034026015625,75.1691484375,169.818276015625,76.1456484375,169.396766015625,75.5891484375C169.115516015625,75.21864843750001,167.973256015625,74.9816484375,165.969256015625,74.8781484375C162.054256015625,74.7439484375,160.793507015625,73.2079484375,162.188507015625,70.2693984375C163.582756015625,67.33164843750001,165.135256015625,64.8506484375,166.843746015625,62.8271484375L169.712506015625,64.7636484375L169.879776015625,65.0786484375Z" fill-rule="evenodd" fill="url(#master_svg3_279_14543)" fill-opacity="1"/></g><g><path d="M170.4625779375,54.410009578125C169.9675749375,56.903007578125,170.2000732475,58.369257578125,171.1600719375,58.808757578125C172.4163109375,59.336757578125,171.2035829375,60.569757578125,170.9493179375,60.704007578125C170.7805629375,60.793257578125,170.9298169375,61.049007578125,171.3993209375,61.470507578125C172.1935609375,61.894257578125,172.7778309375,62.063007578124996,173.1505609375,61.976767578125C173.5240509375,61.890507578124996,173.9793209375,61.466767578125,174.5163309375,60.704017578125C173.5158109375,59.978007578125,173.1670709375,59.395257578125,173.4715709375,58.956507578125C173.7753209375,58.517767578125,174.2373209375,58.059517578124996,174.8568109375,57.583257578125C175.4583109375,57.118257578125,175.4350609375,56.764257578125,174.7870709375,56.522007578125C174.9438309375,56.081757578125,175.0023109375,55.580017578125,174.9610709375,55.016767578125L172.8528109375,54.410014578125L170.7063139375,53.936767578125L170.4625779375,54.410009578125Z" fill-rule="evenodd" fill="url(#master_svg4_279_14544)" fill-opacity="1"/></g><g><path d="M171.80875070312499,54.976036171875C173.863740703125,54.385026171875,174.409740703125,55.293276171875,174.409740703125,55.677276171875C174.409740703125,55.933786171875,174.345240703125,56.358276171875,174.215480703125,56.950776171875C174.397150703125,56.872296171875,174.575310703125,56.785966171875,174.749490703125,56.692026171875C175.379480703125,56.332026171875,175.797240703125,55.693776171875,175.945740703125,55.196526171875C176.223240703125,54.267276171875,175.407250703125,52.296278171875,173.290730703125,52.590277171875C172.552730703125,52.449274171875,172.435720703125,51.352026171875,171.153230703125,52.027027171875C169.871467703125,52.702028171875,169.438720703125,52.183027171875,169.438720703125,52.874526171875C169.438720703125,53.566776171875,169.491981503125,55.699026171875,171.80875070312499,54.976036171875Z" fill-rule="evenodd" fill="#353564" fill-opacity="1"/></g><g><path d="M167.164900859375,111.165397265625C165.812640859375,112.001647265625,164.868390859375,112.419397265625,164.331386859375,112.419397265625C163.525882759375,112.419397265625,163.090137859375,113.140897265625,163.839381859375,113.530147265625C164.588630859375,113.920147265625,166.987880859375,113.358397265625,167.602130859375,113.358397265625C168.216380859375,113.358397265625,169.798140859375,113.581147265625,169.192130859375,111.818647265625C168.787880859375,110.643398265625,168.417380859375,110.143154265625,168.079120859375,110.317894265625L167.16487085937501,110.565395265625L167.164900859375,111.165397265625ZM176.446180859375,111.081397265625C175.510880859375,112.379647265625,174.799880859375,113.107897265625,174.313180859375,113.266147265625C173.582680859375,113.504637265625,173.438660859375,114.407647265625,174.253880859375,114.604897265625C175.068380859375,114.801387265625,177.048380859375,113.489647265625,177.605680859375,113.308147265625C178.162880859375,113.12663726562499,179.67418085937499,112.897897265625,178.511680859375,111.184147265625C177.736180859375,110.041141265625,177.226180859375,109.613647265625,176.980180859375,109.901638065625L176.237680859375,110.437885265625L176.446180859375,111.081397265625Z" fill-rule="evenodd" fill="#3E3E6E" fill-opacity="1"/></g><g><path d="M175.17232671875,80.29541015625C174.29257671875,86.15966015625,173.05132671875,90.74291015625,171.44933671875,94.04591015625C170.57333671875,98.15961015625,170.01234671875,110.61191015625,168.84907671875,111.08291015625C167.68507671875,111.55461015624999,166.85631671875,111.27191015625,166.89831671875,110.66971015625C166.94031671875,110.06671015625,165.34807571875,93.37391015625,165.52955631875,90.77821015625C165.65031471875,89.04716015625,165.66754871875,85.61366015625,165.58206171875,80.47766915625L175.17232671875,80.29541015625Z" fill-rule="evenodd" fill="#4162A7" fill-opacity="1"/></g><g><path d="M179.2639509375,79.626953125C179.3892009375,85.257203125,179.0667009375,91.301453125,178.2964509375,97.758953125C177.5764509375,105.807953125,179.1304509375,110.266653125,178.0324509375,110.876453125C176.9344609375,111.486953125,176.0772109375,111.307653125,176.0457109375,110.704653125C176.0142209375,110.100953125,172.6699609375,93.808653125,172.5342109375,91.209953125C172.4434609375,89.477453125,172.0437159375,86.067203125,171.3349609375,80.979953125L179.2639509375,79.626953125Z" fill-rule="evenodd" fill="#5475B9" fill-opacity="1"/></g><g><path d="M171.00933640625,60.470563921875C172.32108640625,61.894067421875,173.52632640625,61.894067421875,174.62581640625,60.470563921875C174.81711640625,60.341566121875,178.85431640625,60.140562421875,181.71561640625,64.792067421875C181.74411640625,64.969057421875,180.94161640625,65.927567421875,179.30731640625,67.669067421875L178.80711640625,67.669067421875C179.91781640625,73.391607421875,180.08431640625,77.950807421875,179.30731640625,81.346107421875C179.20531640625,81.699307421875,174.61681640625,81.898107421875,165.54107640625,81.941607421875C165.51706640625,74.284807421875,166.02408640625,69.75782742187499,167.06057640625,68.360567421875C166.93382640625,68.103317421875,165.99256640625,67.263327421875,164.23681640625,65.839077421875C164.78956640625,64.649577421875,165.62132640625,63.505077421875,166.73130640625,62.407067421875C167.84131640625,61.309066421875,169.26706640625,60.664072421875,171.00933640625,60.470563921875Z" fill-rule="evenodd" fill="#04266E" fill-opacity="1"/></g><g><path d="M152.125076796875,55.89088815625C151.622416796875,55.38844115625,150.807624796875,55.38860115625,150.305183796875,55.89125415625C149.802741796875,56.39390715625,149.802924796875,57.20870015625,150.305583796875,57.711140156249996L170.746866796875,78.15236015625C171.249466796875,78.65486015625,172.064266796875,78.65466015625,172.566666796875,78.15206015625C173.069166796875,77.64936015625,173.068966796875,76.83456015625,172.566366796875,76.33216015625L152.125076796875,55.89088815625Z" fill="#A4BBDB" fill-opacity="1"/></g><g><path d="M162.47137734375,66.60785195312499C166.42307734375,62.656051953125,166.42307734375,56.248821953125,162.47137734375,52.297061953125C158.51957734375,48.345311953125,152.11308734375,48.345317953125,148.16058734375,52.297061953125C144.20884334375,56.248811953125,144.20884334375,62.656051953125,148.16058734375,66.60785195312499C152.11309734375,70.559551953125,158.51957734375,70.559551953125,162.47137734375,66.60785195312499Z" fill="#A4BBDB" fill-opacity="1"/></g><g><path d="M161.2786890625,65.41523125C164.5719890625,62.12193125,164.5719890625,56.78272125,161.2786890625,53.48947125C157.9854890625,50.19622025,152.6462290625,50.19622025,149.3537290625,53.48947125C146.0604780625,56.78272125,146.0604780625,62.12193125,149.3537290625,65.41523125C152.6462290625,68.70843125,157.9854890625,68.70843125,161.2786890625,65.41523125Z" fill="url(#master_svg5_279_14552)" fill-opacity="1"/></g><g><path d="M178.213200078125,67.31181625C178.110460078125,67.95681625,179.905940078125,70.77530625,180.581700078125,71.79530625C180.801440078125,71.86955625,174.937950078125,74.24481625,174.440700078125,74.57410625C173.085449078125,75.47330625000001,173.068947078125,76.86530625,174.176712078125,77.18260624999999C175.283720078125,77.49980625,175.501210078125,75.43360625,175.714960078125,75.38410625C179.446970078125,74.52010625,179.773220078125,74.61380625,182.251200078125,74.01156625C184.390180078125,73.54880625,182.774700078125,69.82805625,181.336960078125,65.82306625C179.899220078125,61.81806625,178.315220078125,66.66681625,178.213200078125,67.31181625Z" fill-rule="evenodd" fill="url(#master_svg6_279_14553)" fill-opacity="1"/></g><g><path d="M177.26802734375,60.867919921875C177.95128734375,61.194167921875,178.42678734375,61.438664921875,178.69528734375,61.599923921875C179.39653734375,62.021419921875,179.87579734375,62.436179921875,180.18478734375,62.686679921875C181.14253734375,63.462179921875,181.62403734375,64.257169921875,181.90153734375,64.853429921875C182.13327734375,65.265939921875,179.67478734375,69.003929921875,177.26802734375,68.580179921875C176.93877734375,68.566669921875,176.41528334375,67.795679921875,175.69677734375,66.266419921875L177.26802734375,60.867919921875Z" fill-rule="evenodd" fill="#04266E" fill-opacity="1"/></g><g><path d="M167.011845703125,74.835983671875C167.835335703125,74.568243671875,168.394835703125,73.805492671875,168.260595703125,73.392234671875C168.126355703125,72.979732511875,167.353105703125,72.742736671875,166.864095703125,73.391479671875C166.723835703125,73.577480671875,166.792095703125,74.491723671875,165.403098703125,73.864726671875C165.028854403125,73.695972671875,164.929840103125,73.892478671875,165.013107303125,74.147473671875C165.091865703125,74.390483671875,164.969596903125,74.780473671875,165.878600703125,74.868223671875C166.222105703125,74.901233671875,166.672845703125,74.945473671875,167.011845703125,74.835983671875Z" fill-rule="evenodd" fill="#FFCEBF" fill-opacity="1"/></g><g><path d="M166.108764578125,74.182670640625C166.459752578125,73.927673640625,166.640522578125,73.578925640625,166.513012578125,73.403419540625C166.385502578125,73.228668240625,165.997756578125,73.292423240625,165.647521578125,73.547420640625C165.296531678125,73.801673640625,165.115760778125,74.150421640625,165.243270878125,74.325911640625C165.370780578125,74.501411640625,165.758529578125,74.436911640625,166.108764578125,74.182670640625Z" fill="#FFCEBF" fill-opacity="1"/></g></g></svg>